<?xml version="1.0" encoding="UTF-8"?>
<svg xmlns="http://www.w3.org/2000/svg" viewBox="0 0 86.45 78.97">
  <defs>
    <style>.cls-1{fill:#fff;}</style>
  </defs>
  <g id="Livello_2" data-name="Livello 2">
    <g id="Livello_1-2" data-name="Livello 1">
      <path class="cls-1" d="M38.45,51.84c3.23,0,6.43.1,9.62,0A20.39,20.39,0,0,0,65.55,41.57c2.68-4.32,3.32-9.13,2.93-14.12-.65-8.35-5.1-13.89-12.51-17a13.14,13.14,0,0,0-4.77-.92c-5-.11-10,0-15-.06-5.2-.12-9.27,2.08-12.6,5.95a16.91,16.91,0,0,0-4,10.72,10.32,10.32,0,0,1-.72,3.38,3.73,3.73,0,0,1-3.65,2.37,3.7,3.7,0,0,1-3.63-2.23,10.18,10.18,0,0,1-.85-3.88c-.06-7.92,3.42-14.19,9-19.36A23.37,23.37,0,0,1,36.32,0c5.07,0,10.15-.09,15.22,0A24.54,24.54,0,0,1,67.3,6.45a28,28,0,0,1,10,18.16c1.59,13.09-2.42,23.87-13.33,31.47a35.59,35.59,0,0,1-5.74,2.73,16.22,16.22,0,0,1-1.6.55c1.73,1.88,3.37,3.66,5,5.42.7.74,1.4,1.48,2.16,2.15a7.45,7.45,0,0,0,8.46,1.41,8.24,8.24,0,0,0,5.12-7.42,11.44,11.44,0,0,1,.32-2.2A4.28,4.28,0,0,1,82,55.41a4.39,4.39,0,0,1,4.15,3.42A12,12,0,0,1,85.9,65,17.48,17.48,0,0,1,66.25,78a16.61,16.61,0,0,1-9.1-4.87c-3.07-3-6-6.2-9-9.31-.24-.25-.44-.53-.76-.92-.19,1.54-.25,2.88-.53,4.17A15.24,15.24,0,0,1,31.05,78.93C22.3,78.28,16.57,73.2,12.8,65.49a20.11,20.11,0,0,1-2-8.74c0-3.26,0-6.53,0-9.88h9c0,2.93,0,5.83,0,8.73a14,14,0,0,0,2.94,8.9c2.28,3,5.19,5,9.08,5.11a6.15,6.15,0,0,0,6.58-6.56c-.15-3.61,0-7.24,0-10.86A2.82,2.82,0,0,1,38.45,51.84ZM37.6,31.22a5.28,5.28,0,0,1,3.34-5A5.4,5.4,0,0,1,47,28a5.2,5.2,0,0,1-.22,6.48,5.53,5.53,0,0,1-6.87,1.06,3,3,0,0,0-1.4-.52C33.35,35,28.17,35,23,35c-6,0-12.1,0-18.15,0a4.81,4.81,0,0,0-4.7,3.79A4.69,4.69,0,0,0,2.35,44a6.72,6.72,0,0,0,3,.72q19,.11,38.06.09a14.1,14.1,0,0,0,3.3-.38c7.95-2,13.06-11.75,8-20.73a13.68,13.68,0,0,0-14.92-6.45c-4.51,1.05-7.65,3.9-10,7.92,2,2.1,3.89,4.1,5.74,6.16a1.79,1.79,0,0,0,2.06.63C37.63,31.69,37.6,31.46,37.6,31.22Z"></path>
    </g>
  </g>
</svg>
