<?xml version="1.0" encoding="UTF-8"?>
<svg xmlns="http://www.w3.org/2000/svg" viewBox="0 0 309.39 78.97">
  <defs>
    <style>.cls-1{fill:#fff;}</style>
  </defs>
  <g id="Livello_2" data-name="Livello 2">
    <g id="Livello_1-2" data-name="Livello 1">
      <path class="cls-1" d="M93.46,40.12V20.76h7.08a7.89,7.89,0,0,1,3.42.71,5.41,5.41,0,0,1,2.33,2.08,6.25,6.25,0,0,1,.84,3.34,6,6,0,0,1-.93,3.39,5.55,5.55,0,0,1-2.5,2.09l4.35,7.75h-3.92l-4.69-8.5L101.71,33H97v7.15ZM97,29.85h3.64a3.25,3.25,0,0,0,1.63-.38,2.7,2.7,0,0,0,1.07-1,3.41,3.41,0,0,0,0-3.13,2.74,2.74,0,0,0-1.07-1,3.35,3.35,0,0,0-1.63-.37H97Z"></path>
      <path class="cls-1" d="M110.61,40.12V20.76h3.49V40.12Z"></path>
      <path class="cls-1" d="M118,40.12V20.76h2.72L131.15,35.1l-1.37.29V20.76h3.46V40.12h-2.75L120.23,25.67l1.28-.29V40.12Z"></path>
      <path class="cls-1" d="M146.36,40.43a9.88,9.88,0,0,1-3.91-.76,9.62,9.62,0,0,1-3.14-2.1,9.79,9.79,0,0,1-2.12-3.18,10.79,10.79,0,0,1,0-7.93,9.44,9.44,0,0,1,2.1-3.17,9.73,9.73,0,0,1,3.16-2.09,10.62,10.62,0,0,1,7.84,0,9.6,9.6,0,0,1,5.25,5.27,10.76,10.76,0,0,1,0,7.92,9.77,9.77,0,0,1-2.11,3.18,9.66,9.66,0,0,1-3.15,2.1A9.79,9.79,0,0,1,146.36,40.43Zm0-3.22a6.3,6.3,0,0,0,2.54-.51,6.32,6.32,0,0,0,3.41-3.57,7.33,7.33,0,0,0,.49-2.71,7.19,7.19,0,0,0-.49-2.69A6.4,6.4,0,0,0,151,25.58a6,6,0,0,0-2-1.42,6.85,6.85,0,0,0-5.09,0,6,6,0,0,0-2.05,1.42,6.56,6.56,0,0,0-1.36,2.15,7.39,7.39,0,0,0-.48,2.69,7.54,7.54,0,0,0,.48,2.71,6.3,6.3,0,0,0,6,4.08Z"></path>
      <path class="cls-1" d="M163.87,40.12V20.76H171a7.89,7.89,0,0,1,3.42.71,5.41,5.41,0,0,1,2.33,2.08,6.25,6.25,0,0,1,.84,3.34,6.08,6.08,0,0,1-.85,3.29,5.5,5.5,0,0,1-2.33,2.07A7.67,7.67,0,0,1,171,33h-3.61v7.15Zm3.49-10.27H171a3.16,3.16,0,0,0,1.6-.38,2.82,2.82,0,0,0,1.09-1,3.34,3.34,0,0,0,0-3.13,2.87,2.87,0,0,0-1.09-1,3.26,3.26,0,0,0-1.6-.37h-3.66Z"></path>
      <path class="cls-1" d="M177.44,40.12,184,20.76h4.48L195,40.12h-3.77L189.88,36h-7.33l-1.37,4.14Zm6.11-7.28h5.31l-3.13-9.61h1Z"></path>
      <path class="cls-1" d="M197.38,40.12V20.76h3.49V37H209v3.12Z"></path>
      <path class="cls-1" d="M211.2,40.12V20.76h3.49V37h8.12v3.12Z"></path>
      <path class="cls-1" d="M224.51,40.12l6.54-19.36h4.48l6.54,19.36H238.3L237,36h-7.33l-1.37,4.14Zm6.1-7.28h5.32l-3.13-9.61h1Z"></path>
      <path class="cls-1" d="M244.45,40.12V20.76h6.21A10.67,10.67,0,0,1,255.89,22a8.73,8.73,0,0,1,3.45,3.42,10.13,10.13,0,0,1,1.22,5,10.21,10.21,0,0,1-1.22,5,8.69,8.69,0,0,1-3.45,3.43,10.67,10.67,0,0,1-5.23,1.24ZM247.93,37h2.8a6.62,6.62,0,0,0,3.35-.82,5.71,5.71,0,0,0,2.2-2.29,7.17,7.17,0,0,0,.79-3.47,7.2,7.2,0,0,0-.79-3.47,5.66,5.66,0,0,0-2.2-2.27,6.62,6.62,0,0,0-3.35-.8h-2.8Z"></path>
      <path class="cls-1" d="M263.72,40.12V20.76h3.48V40.12Z"></path>
      <path class="cls-1" d="M271.13,40.12V20.76h2.72L284.26,35.1l-1.38.29V20.76h3.47V40.12H283.6L273.34,25.67l1.27-.29V40.12Z"></path>
      <path class="cls-1" d="M299.46,40.43a9.83,9.83,0,0,1-3.9-.76,9.66,9.66,0,0,1-3.15-2.1,9.77,9.77,0,0,1-2.11-3.18,10.79,10.79,0,0,1,0-7.93,9.44,9.44,0,0,1,2.1-3.17,9.8,9.8,0,0,1,3.15-2.09,10.62,10.62,0,0,1,7.84,0,9.58,9.58,0,0,1,5.26,5.27,10.76,10.76,0,0,1,0,7.92,9.79,9.79,0,0,1-2.12,3.18,9.62,9.62,0,0,1-3.14,2.1A9.84,9.84,0,0,1,299.46,40.43Zm0-3.22a6.31,6.31,0,0,0,6-4.08,7.54,7.54,0,0,0,.48-2.71,7.39,7.39,0,0,0-.48-2.69,6.56,6.56,0,0,0-1.36-2.15A6,6,0,0,0,302,24.16a6.85,6.85,0,0,0-5.09,0,6,6,0,0,0-2.05,1.42,6.4,6.4,0,0,0-1.36,2.15,7.39,7.39,0,0,0-.49,2.69,7.54,7.54,0,0,0,.49,2.71,6.21,6.21,0,0,0,1.36,2.15,6.28,6.28,0,0,0,4.59,1.93Z"></path>
      <path class="cls-1" d="M147.86,58a4.06,4.06,0,0,1-2.16-.58,4.2,4.2,0,0,1-1.5-1.6,4.63,4.63,0,0,1-.55-2.25,4.41,4.41,0,0,1,.56-2.24,4.25,4.25,0,0,1,1.5-1.59,3.89,3.89,0,0,1,2.14-.59,3.59,3.59,0,0,1,1.69.38,2.85,2.85,0,0,1,1.16,1.07l-.3.42V46h2v11.8h-1.89V56.15l.21.4a2.72,2.72,0,0,1-1.19,1.06A3.88,3.88,0,0,1,147.86,58Zm.22-1.87a2.21,2.21,0,0,0,1.2-.33,2.3,2.3,0,0,0,.82-.9,2.86,2.86,0,0,0,.3-1.33,2.81,2.81,0,0,0-.3-1.31,2.3,2.3,0,0,0-.82-.9,2.21,2.21,0,0,0-1.2-.33,2.24,2.24,0,0,0-2,1.23,2.81,2.81,0,0,0-.3,1.31,2.86,2.86,0,0,0,.3,1.33,2.24,2.24,0,0,0,2,1.23Z"></path>
      <path class="cls-1" d="M158.27,58a4.24,4.24,0,0,1-2.25-.59,4.1,4.1,0,0,1-1.51-1.61,4.78,4.78,0,0,1-.53-2.24,4.57,4.57,0,0,1,.55-2.27A4.21,4.21,0,0,1,156,49.69a4,4,0,0,1,2.11-.57,4.22,4.22,0,0,1,1.72.32,3.57,3.57,0,0,1,1.25.91,3.86,3.86,0,0,1,.8,1.32,4.58,4.58,0,0,1,.27,1.59,3.46,3.46,0,0,1,0,.46,1.84,1.84,0,0,1-.08.42h-6.42V52.56h5.29l-1,.73a2.24,2.24,0,0,0-.06-1.27,1.78,1.78,0,0,0-.67-.89,1.9,1.9,0,0,0-1.12-.33,2,2,0,0,0-1.12.33,2,2,0,0,0-.74.93,3.25,3.25,0,0,0-.19,1.48,2.8,2.8,0,0,0,.21,1.38,2,2,0,0,0,.79.93,2.24,2.24,0,0,0,1.21.33,2.17,2.17,0,0,0,1.17-.3,2.13,2.13,0,0,0,.76-.79l1.62.81a3,3,0,0,1-.77,1.07,3.61,3.61,0,0,1-1.23.74A4.64,4.64,0,0,1,158.27,58Z"></path>
      <path class="cls-1" d="M166.82,58a4,4,0,0,1-2.31-.65,3.3,3.3,0,0,1-1.37-1.75l1.51-.73a2.71,2.71,0,0,0,.89,1.12,2.19,2.19,0,0,0,1.28.41,1.42,1.42,0,0,0,.86-.25.81.81,0,0,0,.32-.66.67.67,0,0,0-.13-.41,1.23,1.23,0,0,0-.35-.28,2.5,2.5,0,0,0-.49-.2l-1.36-.39a3.1,3.1,0,0,1-1.58-.94,2.3,2.3,0,0,1-.54-1.52,2.39,2.39,0,0,1,.39-1.36,2.6,2.6,0,0,1,1.09-.92,3.64,3.64,0,0,1,1.59-.32,3.8,3.8,0,0,1,2.08.57A3.17,3.17,0,0,1,170,51.31l-1.53.74a1.86,1.86,0,0,0-.71-.92,2,2,0,0,0-1.13-.33,1.29,1.29,0,0,0-.8.23.74.74,0,0,0-.29.61.65.65,0,0,0,.12.39.82.82,0,0,0,.35.28,4.18,4.18,0,0,0,.51.2l1.33.41a3.37,3.37,0,0,1,1.58.94,2.19,2.19,0,0,1,.56,1.52,2.38,2.38,0,0,1-.4,1.35,2.6,2.6,0,0,1-1.1.91A3.86,3.86,0,0,1,166.82,58Z"></path>
      <path class="cls-1" d="M171.55,48.35V46.17h2v2.18Zm0,9.43V49.3h2v8.48Z"></path>
      <path class="cls-1" d="M179.48,61.21a4.58,4.58,0,0,1-1.72-.31,4.09,4.09,0,0,1-1.37-.86,3.33,3.33,0,0,1-.83-1.3l1.86-.72a1.79,1.79,0,0,0,.72,1,2.38,2.38,0,0,0,1.33.36,2.31,2.31,0,0,0,1.07-.23,1.8,1.8,0,0,0,.74-.68,2.12,2.12,0,0,0,.26-1.07V55.43l.37.47a2.87,2.87,0,0,1-1.14,1.15,3.34,3.34,0,0,1-1.64.39,3.88,3.88,0,0,1-3.5-2,4.27,4.27,0,0,1-.53-2.14,4.16,4.16,0,0,1,.53-2.13,3.82,3.82,0,0,1,3.47-2,3.3,3.3,0,0,1,1.63.39,3.41,3.41,0,0,1,1.18,1.15l-.26.51V49.3h1.89v8.06a3.69,3.69,0,0,1-2,3.35A4.21,4.21,0,0,1,179.48,61.21Zm-.09-5.66a2.14,2.14,0,0,0,1.12-.28,2,2,0,0,0,.76-.81,2.48,2.48,0,0,0,.27-1.18,2.36,2.36,0,0,0-.28-1.17,2.19,2.19,0,0,0-.76-.81,2.05,2.05,0,0,0-1.11-.3,2.17,2.17,0,0,0-1.13.3,2.12,2.12,0,0,0-.79.81,2.36,2.36,0,0,0-.28,1.17,2.41,2.41,0,0,0,.28,1.17,2.1,2.1,0,0,0,1.92,1.1Z"></path>
      <path class="cls-1" d="M185.47,57.78V49.3h1.89V51l-.15-.3a2.24,2.24,0,0,1,1-1.16,3,3,0,0,1,1.55-.39,3.19,3.19,0,0,1,1.62.4,2.87,2.87,0,0,1,1.11,1.13,3.48,3.48,0,0,1,.4,1.68v5.45h-2v-5a2.1,2.1,0,0,0-.22-1,1.53,1.53,0,0,0-.59-.62,1.81,1.81,0,0,0-.87-.22,1.75,1.75,0,0,0-.87.22,1.49,1.49,0,0,0-.6.62,2.1,2.1,0,0,0-.21,1v5Z"></path>
      <path class="cls-1" d="M198.58,58a4.3,4.3,0,0,1-2.26-.59,4.15,4.15,0,0,1-1.5-1.61,4.94,4.94,0,0,1,0-4.51,4.24,4.24,0,0,1,1.49-1.57,3.94,3.94,0,0,1,2.1-.57,4.19,4.19,0,0,1,1.72.32,3.61,3.61,0,0,1,1.26.91,4,4,0,0,1,.8,1.32,4.58,4.58,0,0,1,.27,1.59c0,.16,0,.31,0,.46a2.59,2.59,0,0,1-.09.42H196V52.56h5.28l-1,.73a2.25,2.25,0,0,0-.05-1.27,1.78,1.78,0,0,0-.67-.89,1.91,1.91,0,0,0-1.13-.33,1.93,1.93,0,0,0-1.11.33,2,2,0,0,0-.74.93,3.25,3.25,0,0,0-.19,1.48,2.8,2.8,0,0,0,.2,1.38,2.08,2.08,0,0,0,.8.93,2.22,2.22,0,0,0,1.21.33,2.17,2.17,0,0,0,1.17-.3,2.21,2.21,0,0,0,.76-.79l1.61.81a2.81,2.81,0,0,1-.76,1.07,3.75,3.75,0,0,1-1.24.74A4.54,4.54,0,0,1,198.58,58Z"></path>
      <path class="cls-1" d="M204,57.78V49.3h1.89v1.89l-.15-.28a2.17,2.17,0,0,1,.91-1.33,2.78,2.78,0,0,1,1.48-.37h.49V51h-.71a1.87,1.87,0,0,0-1.38.53,2.1,2.1,0,0,0-.52,1.5v4.72Z"></path>
      <path class="cls-1" d="M216.24,58a4.09,4.09,0,0,1-1.84-.39,3,3,0,0,1-1.25-1.1,3,3,0,0,1-.45-1.66,3.12,3.12,0,0,1,.28-1.38,3.65,3.65,0,0,1,.7-1,4.78,4.78,0,0,1,.81-.67l.68-.43,1-.54c.32-.18.62-.36.89-.54a2.39,2.39,0,0,0,.65-.61,1.35,1.35,0,0,0-.08-1.64,1.09,1.09,0,0,0-.84-.36A1.14,1.14,0,0,0,216,48a1.21,1.21,0,0,0-.34.9,1.87,1.87,0,0,0,.17.76,4,4,0,0,0,.42.69c.17.21.32.39.48.56l6,6.87H220.3l-5.06-5.67c-.24-.27-.47-.56-.71-.87a4.36,4.36,0,0,1-.58-1,3.26,3.26,0,0,1-.23-1.24,3,3,0,0,1,.42-1.6,2.87,2.87,0,0,1,1.12-1,3.27,3.27,0,0,1,3,0,3,3,0,0,1,1.08,1,2.77,2.77,0,0,1,.41,1.48,2.63,2.63,0,0,1-.39,1.46,3.92,3.92,0,0,1-.93,1,10.19,10.19,0,0,1-1,.71l-1,.61a5.93,5.93,0,0,0-.71.48,2.94,2.94,0,0,0-.63.69,1.63,1.63,0,0,0-.26.95,1.36,1.36,0,0,0,.4,1.05,1.53,1.53,0,0,0,1.11.39,1.84,1.84,0,0,0,.76-.15,2.27,2.27,0,0,0,.6-.38,2.81,2.81,0,0,0,.44-.48l.34-.48,1.78-2.63h2.1l-2.07,3.27c-.15.25-.34.53-.56.83a5,5,0,0,1-.81.85,4.22,4.22,0,0,1-1.12.65A4,4,0,0,1,216.24,58Z"></path>
      <path class="cls-1" d="M231.16,58a4.06,4.06,0,0,1-2.16-.58,4.2,4.2,0,0,1-1.5-1.6,4.63,4.63,0,0,1-.55-2.25,4.41,4.41,0,0,1,.56-2.24,4.25,4.25,0,0,1,1.5-1.59,3.89,3.89,0,0,1,2.14-.59,3.59,3.59,0,0,1,1.69.38A2.85,2.85,0,0,1,234,50.57l-.3.42V46h2v11.8h-1.9V56.15l.22.4a2.72,2.72,0,0,1-1.19,1.06A3.88,3.88,0,0,1,231.16,58Zm.22-1.87a2.26,2.26,0,0,0,1.2-.33,2.3,2.3,0,0,0,.82-.9,2.86,2.86,0,0,0,.3-1.33,2.81,2.81,0,0,0-.3-1.31,2.3,2.3,0,0,0-.82-.9,2.29,2.29,0,0,0-3.24.9,2.81,2.81,0,0,0-.3,1.31,2.86,2.86,0,0,0,.3,1.33,2.24,2.24,0,0,0,2,1.23Z"></path>
      <path class="cls-1" d="M241.57,58a4.24,4.24,0,0,1-2.25-.59,4.1,4.1,0,0,1-1.51-1.61,4.78,4.78,0,0,1-.53-2.24,4.57,4.57,0,0,1,.55-2.27,4.21,4.21,0,0,1,1.48-1.57,4,4,0,0,1,2.11-.57,4.14,4.14,0,0,1,1.71.32,3.52,3.52,0,0,1,1.26.91,3.86,3.86,0,0,1,.8,1.32,4.58,4.58,0,0,1,.27,1.59,3.46,3.46,0,0,1,0,.46,1.84,1.84,0,0,1-.08.42h-6.42V52.56h5.29l-1,.73a2.16,2.16,0,0,0,0-1.27,1.78,1.78,0,0,0-.67-.89,1.9,1.9,0,0,0-1.12-.33,2,2,0,0,0-1.12.33,2,2,0,0,0-.74.93,3.25,3.25,0,0,0-.19,1.48,2.8,2.8,0,0,0,.21,1.38,2,2,0,0,0,.79.93,2.24,2.24,0,0,0,1.21.33,2.17,2.17,0,0,0,1.17-.3,2.13,2.13,0,0,0,.76-.79l1.62.81a3,3,0,0,1-.77,1.07,3.71,3.71,0,0,1-1.23.74A4.64,4.64,0,0,1,241.57,58Z"></path>
      <path class="cls-1" d="M249.29,57.78,246,49.3h2.18L250.57,56h-.81l2.38-6.68h2.19l-3.27,8.48Z"></path>
      <path class="cls-1" d="M259.14,58a4.27,4.27,0,0,1-2.25-.59,4.1,4.1,0,0,1-1.51-1.61,4.78,4.78,0,0,1-.53-2.24,4.57,4.57,0,0,1,.55-2.27,4.21,4.21,0,0,1,1.48-1.57,4,4,0,0,1,2.11-.57,4.22,4.22,0,0,1,1.72.32,3.7,3.7,0,0,1,1.26.91,4,4,0,0,1,.79,1.32,4.58,4.58,0,0,1,.27,1.59,3.46,3.46,0,0,1,0,.46,1.84,1.84,0,0,1-.08.42h-6.42V52.56h5.29l-1,.73a2.24,2.24,0,0,0-.06-1.27,1.78,1.78,0,0,0-.67-.89A1.88,1.88,0,0,0,259,50.8a2,2,0,0,0-1.12.33,2,2,0,0,0-.74.93,3.25,3.25,0,0,0-.19,1.48,2.8,2.8,0,0,0,.21,1.38,2.06,2.06,0,0,0,.79.93,2.25,2.25,0,0,0,1.22.33,2.11,2.11,0,0,0,1.92-1.09l1.62.81a2.84,2.84,0,0,1-.77,1.07,3.61,3.61,0,0,1-1.23.74A4.64,4.64,0,0,1,259.14,58Z"></path>
      <path class="cls-1" d="M264.61,57.78V46h2v11.8Z"></path>
      <path class="cls-1" d="M272.58,58a4.41,4.41,0,0,1-3.81-2.15,4.46,4.46,0,0,1,1.59-6.13,4.61,4.61,0,0,1,4.44,0A4.28,4.28,0,0,1,277,53.54a4.31,4.31,0,0,1-2.18,3.85A4.27,4.27,0,0,1,272.58,58Zm0-1.87a2.17,2.17,0,0,0,2-1.24,2.85,2.85,0,0,0,.3-1.32,2.81,2.81,0,0,0-.3-1.31,2.21,2.21,0,0,0-.81-.9,2.15,2.15,0,0,0-1.19-.33,2.21,2.21,0,0,0-1.2.33,2.35,2.35,0,0,0-.81.9,2.81,2.81,0,0,0-.3,1.31,2.85,2.85,0,0,0,.3,1.32,2.31,2.31,0,0,0,.81.91A2.21,2.21,0,0,0,272.58,56.1Z"></path>
      <path class="cls-1" d="M278.5,60.9V49.3h1.9V51l-.19-.42a3,3,0,0,1,1.16-1.07,3.58,3.58,0,0,1,1.7-.38,3.87,3.87,0,0,1,2.12.59,4.27,4.27,0,0,1,1.51,1.59,4.51,4.51,0,0,1,.55,2.24,4.63,4.63,0,0,1-.55,2.25,4.17,4.17,0,0,1-1.49,1.6,4,4,0,0,1-2.16.58,3.76,3.76,0,0,1-1.65-.36,2.75,2.75,0,0,1-1.2-1.06l.32-.4V60.9Zm4.33-4.8a2.24,2.24,0,0,0,1.21-.33,2.32,2.32,0,0,0,.83-.9,2.75,2.75,0,0,0,.31-1.33,2.7,2.7,0,0,0-.31-1.31,2.32,2.32,0,0,0-.83-.9,2.24,2.24,0,0,0-1.21-.33,2.2,2.2,0,0,0-1.19.33,2.3,2.3,0,0,0-.82.9,2.81,2.81,0,0,0-.3,1.31,2.86,2.86,0,0,0,.3,1.33,2.3,2.3,0,0,0,.82.9A2.2,2.2,0,0,0,282.83,56.1Z"></path>
      <path class="cls-1" d="M292.71,58a4.29,4.29,0,0,1-2.25-.59,4,4,0,0,1-1.5-1.61,4.67,4.67,0,0,1-.54-2.24,4.57,4.57,0,0,1,.55-2.27,4.3,4.3,0,0,1,1.48-1.57,4,4,0,0,1,2.11-.57,4.22,4.22,0,0,1,1.72.32,3.7,3.7,0,0,1,1.26.91,4,4,0,0,1,.79,1.32,4.58,4.58,0,0,1,.28,1.59,3.44,3.44,0,0,1,0,.46,1.84,1.84,0,0,1-.08.42h-6.41V52.56h5.28l-1,.73a2.24,2.24,0,0,0-.06-1.27,1.73,1.73,0,0,0-.67-.89,1.88,1.88,0,0,0-1.12-.33,2,2,0,0,0-1.12.33,2,2,0,0,0-.74.93,3.4,3.4,0,0,0-.19,1.48,2.8,2.8,0,0,0,.21,1.38,2.06,2.06,0,0,0,.79.93,2.25,2.25,0,0,0,1.22.33,2.17,2.17,0,0,0,1.17-.3,2.11,2.11,0,0,0,.75-.79l1.62.81a2.92,2.92,0,0,1-.76,1.07,3.75,3.75,0,0,1-1.24.74A4.64,4.64,0,0,1,292.71,58Z"></path>
      <path class="cls-1" d="M298.16,57.78V49.3h1.9v1.89l-.16-.28a2.26,2.26,0,0,1,.91-1.33,2.82,2.82,0,0,1,1.49-.37h.49V51h-.72a1.83,1.83,0,0,0-1.37.53,2.06,2.06,0,0,0-.52,1.5v4.72Z"></path>
      <path class="cls-1" d="M38.45,51.84c3.23,0,6.43.1,9.62,0A20.39,20.39,0,0,0,65.55,41.57c2.68-4.32,3.32-9.13,2.93-14.12-.65-8.35-5.1-13.89-12.51-17a13.14,13.14,0,0,0-4.77-.92c-5-.11-10,0-15-.06-5.2-.12-9.27,2.08-12.6,5.95a16.91,16.91,0,0,0-4,10.72,10.32,10.32,0,0,1-.72,3.38,3.73,3.73,0,0,1-3.65,2.37,3.7,3.7,0,0,1-3.63-2.23,10.18,10.18,0,0,1-.85-3.88c-.06-7.92,3.42-14.19,9-19.36A23.37,23.37,0,0,1,36.32,0c5.07,0,10.15-.09,15.22,0A24.54,24.54,0,0,1,67.3,6.45a28,28,0,0,1,10,18.16c1.59,13.09-2.42,23.87-13.33,31.47a35.59,35.59,0,0,1-5.74,2.73,16.22,16.22,0,0,1-1.6.55c1.73,1.88,3.37,3.66,5,5.42.7.74,1.4,1.48,2.16,2.15a7.45,7.45,0,0,0,8.46,1.41,8.24,8.24,0,0,0,5.12-7.42,11.44,11.44,0,0,1,.32-2.2A4.28,4.28,0,0,1,82,55.41a4.39,4.39,0,0,1,4.15,3.42A12,12,0,0,1,85.9,65,17.48,17.48,0,0,1,66.25,78a16.61,16.61,0,0,1-9.1-4.87c-3.07-3-6-6.2-9-9.31-.24-.25-.44-.53-.76-.92-.19,1.54-.25,2.88-.53,4.17A15.24,15.24,0,0,1,31.05,78.93C22.3,78.28,16.57,73.2,12.8,65.49a20.11,20.11,0,0,1-2-8.74c0-3.26,0-6.53,0-9.88h9c0,2.93,0,5.83,0,8.73a14,14,0,0,0,2.94,8.9c2.28,3,5.19,5,9.08,5.11a6.15,6.15,0,0,0,6.58-6.56c-.15-3.61,0-7.24,0-10.86A2.82,2.82,0,0,1,38.45,51.84ZM37.6,31.22a5.28,5.28,0,0,1,3.34-5A5.4,5.4,0,0,1,47,28a5.2,5.2,0,0,1-.22,6.48,5.53,5.53,0,0,1-6.87,1.06,3,3,0,0,0-1.4-.52C33.35,35,28.17,35,23,35c-6,0-12.1,0-18.15,0a4.81,4.81,0,0,0-4.7,3.79A4.69,4.69,0,0,0,2.35,44a6.72,6.72,0,0,0,3,.72q19,.11,38.06.09a14.1,14.1,0,0,0,3.3-.38c7.95-2,13.06-11.75,8-20.73a13.68,13.68,0,0,0-14.92-6.45c-4.51,1.05-7.65,3.9-10,7.92,2,2.1,3.89,4.1,5.74,6.16a1.79,1.79,0,0,0,2.06.63C37.63,31.69,37.6,31.46,37.6,31.22Z"></path>
    </g>
  </g>
</svg>
